<svg xmlns="http://www.w3.org/2000/svg" viewBox="0 0 18 18">
  <path d="M11.121 11.121A2.89 2.89 0 0 0 12 9a2.89 2.89 0 0 0-.879-2.121A2.89 2.89 0 0 0 9 6a2.89 2.89 0 0 0-2.121.879A2.89 2.89 0 0 0 6 9c0 .828.293 1.535.879 2.121A2.89 2.89 0 0 0 9 12a2.89 2.89 0 0 0 2.121-.879zm1.149-5.39c.898.898 1.347 1.988 1.347 3.269 0 1.281-.449 2.371-1.347 3.27-.899.898-1.989 1.347-3.27 1.347s-2.371-.449-3.27-1.347C4.832 11.37 4.383 10.28 4.383 9s.449-2.371 1.347-3.27C6.63 4.832 7.72 4.383 9 4.383s2.371.449 3.27 1.347zm2.296-2.297c.211.21.317.464.317.761s-.106.551-.317.762c-.21.211-.464.316-.761.316s-.551-.105-.762-.316a1.038 1.038 0 0 1-.316-.762c0-.297.105-.55.316-.761.21-.211.465-.317.762-.317s.55.106.761.317zM9.891 1.617H9l-.896-.006a63.574 63.574 0 0 0-1.237 0c-.281.004-.658.016-1.13.035-.473.02-.876.06-1.208.118-.332.058-.611.13-.838.216a3.04 3.04 0 0 0-1.03.68 3.04 3.04 0 0 0-.68 1.031 4.699 4.699 0 0 0-.217.838 9.287 9.287 0 0 0-.118 1.207c-.019.473-.03.85-.035 1.131-.004.281-.004.694 0 1.237L1.617 9l-.006.896c-.004.543-.004.956 0 1.237.004.281.016.658.035 1.13.02.473.06.876.118 1.208.058.332.13.611.216.838.157.39.383.734.68 1.03.297.298.64.524 1.031.68.227.086.506.159.838.217.332.059.735.098 1.207.118.473.019.85.03 1.131.035.281.004.694.004 1.237 0L9 16.383l.896.006c.543.004.956.004 1.237 0 .281-.004.658-.016 1.13-.035.473-.02.876-.06 1.208-.118.332-.058.611-.13.838-.216a3.04 3.04 0 0 0 1.03-.68 3.04 3.04 0 0 0 .68-1.031c.086-.227.159-.506.217-.838.059-.332.098-.735.118-1.207.019-.473.03-.85.035-1.131.004-.281.004-.694 0-1.237L16.383 9l.006-.896c.004-.543.004-.956 0-1.237a43.414 43.414 0 0 0-.035-1.13 9.287 9.287 0 0 0-.118-1.208 4.699 4.699 0 0 0-.216-.838 3.04 3.04 0 0 0-.68-1.03 3.04 3.04 0 0 0-1.031-.68 4.699 4.699 0 0 0-.838-.217 9.287 9.287 0 0 0-1.207-.118c-.473-.019-.85-.03-1.131-.035a47.884 47.884 0 0 0-1.242.006zm8.05 3.668C17.981 5.973 18 7.211 18 9c0 1.79-.02 3.027-.059 3.715-.078 1.625-.562 2.883-1.453 3.773-.89.89-2.148 1.375-3.773 1.453-.688.04-1.926.059-3.715.059-1.79 0-3.027-.02-3.715-.059-1.625-.078-2.883-.562-3.773-1.453-.89-.89-1.375-2.148-1.453-3.773C.019 12.027 0 10.789 0 9c0-1.79.02-3.027.059-3.715C.137 3.66.62 2.402 1.512 1.512 2.402.622 3.66.137 5.285.059 5.973.019 7.211 0 9 0c1.79 0 3.027.02 3.715.059 1.625.078 2.883.562 3.773 1.453.89.89 1.375 2.148 1.453 3.773z"/>
</svg>