<svg xmlns="http://www.w3.org/2000/svg" viewBox="0 0 32 32">
  <g fill-rule="nonzero" fill="none">
    <path d="M31.84 25.523V6.493A6.406 6.406 0 0 0 25.436.088H6.405A6.405 6.405 0 0 0 0 6.493v19.03a6.405 6.405 0 0 0 6.405 6.406h19.03a6.406 6.406 0 0 0 6.406-6.406" fill-opacity=".01" fill="#FFF"/>
    <path d="M24.177 13.949c-.827 4.581-5.289 7.769-7.899 12.526-.146.267-.555.267-.701-.002-2.57-4.704-6.93-8.135-7.854-12.405l-.015-.066a7.565 7.565 0 0 1-.114-.704c-.005-.04-.007-.079-.012-.118a7.662 7.662 0 0 1-.038-.73v-.002c0-.264.016-.527.043-.788.01-.092.028-.183.041-.275.024-.164.047-.33.08-.49.025-.113.057-.224.086-.336.036-.136.07-.272.114-.406.038-.12.084-.24.13-.358.044-.119.088-.237.139-.353a8.48 8.48 0 0 1 .178-.374c.052-.1.102-.202.157-.3a8.138 8.138 0 0 1 1.244-1.662c.017-.017.031-.036.049-.054.007-.007.017-.013.025-.02a2.17 2.17 0 0 1 2.92-.068c.662.586.82 1.48.475 2.223-.093.2-.214.39-.381.558a3.822 3.822 0 0 0-1.132 2.703c0 2.18 1.878 3.953 4.187 3.953s4.186-1.773 4.186-3.953a3.818 3.818 0 0 0-1.132-2.702 1.952 1.952 0 0 1-.413-.622 1.889 1.889 0 0 1 .508-2.16 2.17 2.17 0 0 1 2.908.058l.038.031c.101.102.191.21.286.316.056.064.116.124.17.19.36.428.67.887.926 1.37l.011.024a7.752 7.752 0 0 1 .516 1.234l.024.07a7.63 7.63 0 0 1 .25 3.692" fill="#B5B5B5"/>
  </g>
</svg>