<svg xmlns="http://www.w3.org/2000/svg" viewBox="0 0 50 50">
  <g fill-rule="nonzero" fill="none">
    <path d="M49.75 39.88V10.146C49.75 4.619 45.27.138 39.743.138H10.008C4.481.138 0 4.618 0 10.146V39.88c0 5.527 4.48 10.008 10.008 10.008h29.734c5.527 0 10.009-4.48 10.009-10.008" fill-opacity=".01" fill="#FFF"/>
    <path d="M25.435 41.367c-.229.417-.867.417-1.096-.002-4.014-7.352-10.827-12.711-12.273-19.383l-.022-.103a11.82 11.82 0 0 1-.178-1.1c-.008-.062-.012-.124-.018-.185-.036-.376-.061-.754-.061-1.14 0-.417.025-.827.067-1.235.016-.144.045-.285.065-.43.037-.257.074-.514.126-.767.038-.176.088-.349.134-.523.055-.213.11-.426.177-.634.06-.19.132-.375.202-.56.07-.186.14-.37.218-.551.087-.198.182-.392.279-.585.08-.158.16-.315.245-.469.117-.208.243-.413.372-.615.08-.126.16-.25.244-.371a12.58 12.58 0 0 1 .7-.917c.2-.237.408-.469.628-.693.026-.028.048-.058.076-.085 1.274-1.234 3.304-1.288 4.602-.138a2.945 2.945 0 0 1 .742 3.474c-.145.312-.334.61-.595.872-1.14 1.148-1.769 2.648-1.769 4.223 0 3.406 2.934 6.177 6.542 6.177 3.608 0 6.541-2.771 6.541-6.177 0-1.575-.627-3.075-1.769-4.223a3.05 3.05 0 0 1-.645-.971c-.478-1.14-.21-2.485.794-3.374 1.291-1.146 3.308-1.095 4.544.09.217.208.357.377.505.543.088.098.182.194.266.295.563.67 1.048 1.387 1.447 2.143.194.368.348.709.493 1.055.123.299.233.602.33.909.012.037.026.073.037.11.579 1.814.751 3.775.39 5.768-1.29 7.159-8.262 12.14-12.34 19.572z" fill="#4F7082"/>
  </g>
</svg>