<svg xmlns="http://www.w3.org/2000/svg" viewbox="0 0 87 16">
  <path d="M.438 9.414V.993h3.024v8.316c0 1.953 1.071 3.297 3.255 3.297 2.142 0 3.213-1.344 3.213-3.297V.993h3.024v8.4c0 3.486-1.995 5.859-6.237 5.859-4.284 0-6.279-2.394-6.279-5.838zm14.616-1.407c0-4.431 3.36-7.245 7.455-7.245 2.898 0 4.725 1.407 5.796 3.066l-2.478 1.344a3.974 3.974 0 0 0-3.318-1.764c-2.541 0-4.389 1.953-4.389 4.599s1.848 4.599 4.389 4.599c1.281 0 2.415-.525 3.024-1.071V9.834h-3.738V7.272h6.678v5.355c-1.428 1.596-3.423 2.646-5.964 2.646-4.095 0-7.455-2.856-7.455-7.266zm15.12 0c0-4.221 3.087-7.245 7.308-7.245 4.242 0 7.329 3.024 7.329 7.245s-3.087 7.245-7.329 7.245c-4.221 0-7.308-3.024-7.308-7.245zm11.571 0c0-2.625-1.68-4.599-4.263-4.599S33.24 5.382 33.24 8.007c0 2.604 1.659 4.599 4.242 4.599s4.263-1.995 4.263-4.599zM46.911 15V.993h2.982v11.382h5.922V15h-8.904zm10.311-6.993c0-4.221 3.087-7.245 7.308-7.245 4.242 0 7.329 3.024 7.329 7.245s-3.087 7.245-7.329 7.245c-4.221 0-7.308-3.024-7.308-7.245zm11.571 0c0-2.625-1.68-4.599-4.263-4.599s-4.242 1.974-4.242 4.599c0 2.604 1.659 4.599 4.242 4.599s4.263-1.995 4.263-4.599zm11.844 7.245c-4.095 0-7.35-2.94-7.35-7.245S76.542.762 80.637.762c3.192 0 4.977 1.68 5.964 3.423l-2.562 1.26a3.836 3.836 0 0 0-3.402-2.037c-2.436 0-4.284 1.953-4.284 4.599s1.848 4.599 4.284 4.599c1.554 0 2.814-.882 3.402-2.037l2.562 1.239c-1.008 1.743-2.772 3.444-5.964 3.444z" fill="#50595B" fill-rule="evenodd"/>
</svg>