<svg xmlns="http://www.w3.org/2000/svg" viewBox="0 0 67 14">
  <path d="M4.53 11.112c-1.307 0-2.324-.373-3.052-1.12C.75 9.245.386 8.172.386 6.772V1.2h1.4v5.516c0 2.1.92 3.15 2.758 3.15.896 0 1.582-.259 2.058-.777.476-.518.714-1.309.714-2.373V1.2h1.358v5.572c0 1.41-.364 2.485-1.092 3.227-.728.742-1.745 1.113-3.052 1.113zM18.446 3.58v6.412c0 1.297-.322 2.256-.966 2.877-.644.62-1.605.931-2.884.931-.7 0-1.367-.096-2.002-.287-.635-.191-1.148-.464-1.54-.819l.644-1.036a3.8 3.8 0 0 0 1.281.707 4.867 4.867 0 0 0 1.575.259c.868 0 1.51-.205 1.925-.616.415-.41.623-1.036.623-1.876v-.588c-.317.383-.707.67-1.169.861a3.895 3.895 0 0 1-1.505.287c-.71 0-1.351-.152-1.925-.455a3.385 3.385 0 0 1-1.351-1.274c-.327-.546-.49-1.169-.49-1.869s.163-1.323.49-1.869a3.336 3.336 0 0 1 1.351-1.267c.574-.299 1.216-.448 1.925-.448.56 0 1.08.103 1.561.308.48.205.875.509 1.183.91V3.58h1.274zm-3.864 5.936c.485 0 .922-.103 1.309-.308.387-.205.69-.492.91-.861.22-.369.329-.786.329-1.253 0-.719-.238-1.3-.714-1.743-.476-.443-1.087-.665-1.834-.665-.756 0-1.372.222-1.848.665-.476.443-.714 1.024-.714 1.743 0 .467.11.884.329 1.253.22.369.523.656.91.861.387.205.828.308 1.323.308zm9.604 1.568c-.737 0-1.4-.163-1.988-.49a3.553 3.553 0 0 1-1.379-1.351c-.331-.574-.497-1.225-.497-1.953s.166-1.379.497-1.953a3.504 3.504 0 0 1 1.379-1.344c.588-.322 1.25-.483 1.988-.483.737 0 1.398.161 1.981.483.583.322 1.04.77 1.372 1.344.331.574.497 1.225.497 1.953s-.166 1.379-.497 1.953a3.567 3.567 0 0 1-1.372 1.351c-.583.327-1.244.49-1.981.49zm0-1.176c.476 0 .903-.11 1.281-.329.378-.22.674-.527.889-.924.215-.397.322-.852.322-1.365s-.107-.968-.322-1.365a2.274 2.274 0 0 0-.889-.917 2.548 2.548 0 0 0-1.281-.322c-.476 0-.903.107-1.281.322-.378.215-.677.52-.896.917-.22.397-.329.852-.329 1.365s.11.968.329 1.365c.22.397.518.705.896.924.378.22.805.329 1.281.329zM29.898.612h1.344V11h-1.344V.612zm7.084 10.472c-.737 0-1.4-.163-1.988-.49a3.553 3.553 0 0 1-1.379-1.351c-.331-.574-.497-1.225-.497-1.953s.166-1.379.497-1.953a3.504 3.504 0 0 1 1.379-1.344c.588-.322 1.25-.483 1.988-.483.737 0 1.398.161 1.981.483.583.322 1.04.77 1.372 1.344.331.574.497 1.225.497 1.953s-.166 1.379-.497 1.953a3.567 3.567 0 0 1-1.372 1.351c-.583.327-1.244.49-1.981.49zm0-1.176c.476 0 .903-.11 1.281-.329.378-.22.674-.527.889-.924.215-.397.322-.852.322-1.365s-.107-.968-.322-1.365a2.274 2.274 0 0 0-.889-.917 2.548 2.548 0 0 0-1.281-.322c-.476 0-.903.107-1.281.322-.378.215-.677.52-.896.917-.22.397-.329.852-.329 1.365s.11.968.329 1.365c.22.397.518.705.896.924.378.22.805.329 1.281.329zm8.946 1.176c-.756 0-1.43-.163-2.023-.49a3.59 3.59 0 0 1-1.393-1.351c-.336-.574-.504-1.225-.504-1.953s.168-1.379.504-1.953a3.54 3.54 0 0 1 1.393-1.344c.593-.322 1.267-.483 2.023-.483.672 0 1.272.135 1.799.406.527.27.936.663 1.225 1.176l-1.022.658a2.283 2.283 0 0 0-.868-.798 2.476 2.476 0 0 0-1.148-.266c-.485 0-.922.107-1.309.322-.387.215-.69.52-.91.917-.22.397-.329.852-.329 1.365 0 .523.11.982.329 1.379.22.397.523.702.91.917.387.215.824.322 1.309.322.42 0 .803-.089 1.148-.266.345-.177.635-.443.868-.798l1.022.644c-.29.513-.698.908-1.225 1.183-.527.275-1.127.413-1.799.413zm5.082 0a.928.928 0 0 1-.672-.273.927.927 0 0 1-.28-.693.91.91 0 0 1 .28-.679.928.928 0 0 1 .672-.273c.261 0 .48.089.658.266a.928.928 0 0 1 .266.686c0 .28-.091.511-.273.693a.889.889 0 0 1-.651.273zm4.144-6.258c.233-.43.579-.756 1.036-.98.457-.224 1.013-.336 1.666-.336v1.302a2.624 2.624 0 0 0-.308-.014c-.728 0-1.3.217-1.715.651-.415.434-.623 1.052-.623 1.855V11h-1.344V3.58h1.288v1.246zM66.522 3.58V11h-1.274V9.88c-.27.383-.628.679-1.071.889-.443.21-.926.315-1.449.315-.99 0-1.769-.273-2.338-.819-.57-.546-.854-1.351-.854-2.415V3.58h1.344v4.116c0 .719.173 1.262.518 1.631.345.369.84.553 1.484.553.71 0 1.27-.215 1.68-.644.41-.43.616-1.036.616-1.82V3.58h1.344z" fill="#848484" fill-rule="evenodd"/>
</svg>