<svg xmlns="http://www.w3.org/2000/svg" viewBox="0 0 23 13">
  <path d="M22.477.927c.18.5-.407 1.649-1.758 3.446-.188.25-.442.582-.762.996-.312.398-.527.68-.645.844a5.632 5.632 0 0 0-.357.58c-.121.222-.168.386-.14.492.027.105.078.24.152.404.074.164.201.332.38.504.18.172.403.379.669.621.03.016.05.031.058.047 1.102 1.023 1.848 1.887 2.238 2.59.024.039.05.088.077.146.027.059.054.162.082.31a.905.905 0 0 1-.006.4c-.031.117-.13.224-.293.322-.164.097-.395.146-.692.146l-3 .047c-.187.039-.406.02-.656-.059a2.852 2.852 0 0 1-.61-.257l-.234-.141c-.234-.164-.507-.414-.82-.75-.312-.336-.58-.639-.803-.908a3.882 3.882 0 0 0-.714-.68c-.254-.184-.475-.244-.663-.182a.766.766 0 0 0-.093.041 1.49 1.49 0 0 0-.451.516c-.075.137-.141.34-.2.61-.058.269-.084.572-.076.908 0 .117-.014.224-.04.322a.79.79 0 0 1-.089.217l-.047.058c-.14.149-.347.235-.62.258h-1.348a5.326 5.326 0 0 1-1.711-.193 6.54 6.54 0 0 1-1.541-.621 14.053 14.053 0 0 1-1.207-.774 6.963 6.963 0 0 1-.827-.674l-.293-.28a7.716 7.716 0 0 1-.322-.352 25.902 25.902 0 0 1-.838-1.067 29.296 29.296 0 0 1-1.242-1.77A35.885 35.885 0 0 1 1.6 4.573 38.683 38.683 0 0 1 .07 1.384.935.935 0 0 1 0 1.068C0 .982.012.92.035.881L.082.81C.199.66.422.587.75.587L3.96.564c.095.016.185.041.27.076a.795.795 0 0 1 .188.1l.059.035c.125.086.218.211.28.375.157.39.337.795.54 1.213.203.418.363.736.48.955l.188.34c.226.469.445.875.656 1.219.211.343.4.611.568.802.168.192.33.342.487.452.156.109.289.164.398.164.11 0 .215-.02.317-.059a.201.201 0 0 0 .058-.059 2.33 2.33 0 0 0 .14-.257c.071-.141.124-.325.159-.551.035-.227.072-.543.111-.95.04-.406.04-.894 0-1.464a5.446 5.446 0 0 0-.105-.856c-.055-.257-.11-.437-.164-.539l-.07-.14c-.196-.266-.528-.434-.997-.504-.101-.016-.082-.11.059-.282.125-.148.273-.265.445-.351.414-.203 1.348-.297 2.801-.281.64.007 1.168.058 1.582.152.156.04.287.092.393.158.105.067.185.16.24.281.055.122.096.247.123.375a2.7 2.7 0 0 1 .041.534c0 .226-.004.441-.012.644l-.029.826c-.012.348-.018.67-.018.967 0 .086-.003.25-.011.492a9.76 9.76 0 0 0-.006.563c.004.133.017.29.04.474.024.184.07.336.136.458a.78.78 0 0 0 .263.287l.2.046c.07.016.171-.027.304-.128.133-.102.281-.237.446-.405a6.06 6.06 0 0 0 .609-.785c.242-.355.508-.775.797-1.26.469-.812.886-1.691 1.254-2.636a.803.803 0 0 1 .117-.205c.047-.059.09-.1.129-.123l.047-.036.058-.029a.622.622 0 0 1 .153-.035.942.942 0 0 1 .234-.006l3.375-.023c.305-.04.555-.03.75.029.195.059.316.123.363.193l.07.117z"/>
</svg>