<svg xmlns="http://www.w3.org/2000/svg" viewBox="0 0 18 21.7">
  <path d="M17.9 8.1c-.9 4.9-5.7 8.3-8.5 13.4-.2.3-.6.3-.8 0C5.8 16.4 1.2 12.8.2 8.2v-.1c-.1-.2-.1-.5-.1-.7v-.1C0 7 0 6.7 0 6.5v-.8-.3c0-.2.1-.4.1-.5 0-.1.1-.2.1-.4 0-.1.1-.3.1-.4 0-.1.1-.3.1-.4 0-.1.1-.3.1-.4.2-.2.3-.3.4-.5 0-.1.1-.2.1-.3.4-.6.8-1.3 1.3-1.8l.1-.1c.9-.8 2.2-.9 3.1-.1.8.7 1 1.7.6 2.5-.1.2-.2.4-.4.6-.8.7-1.2 1.8-1.2 2.9 0 2.3 2 4.2 4.5 4.2s4.5-1.9 4.5-4.2c0-1.1-.4-2.1-1.2-2.9-.2-.2-.3-.4-.4-.7-.3-.8-.1-1.7.5-2.3.9-.8 2.3-.8 3.1.1l.3.3c.1.1.2.1.2.2.4.5.7 1 1 1.5.2.4.4.9.6 1.3v.1c.4 1.3.5 2.7.3 4"/>
</svg>